<svg width="51" height="44" viewBox="0 0 51 44" fill="none" xmlns="http://www.w3.org/2000/svg">
<path fill-rule="evenodd" clip-rule="evenodd" d="M47.6256 43.6175C49.8289 43.6175 51.2057 41.2754 50.1033 39.4021L27.7669 1.40621C26.6661 -0.46715 23.9123 -0.46715 22.8099 1.40621L11.5251 20.6026C12.3576 20.4558 13.216 20.3779 14.0928 20.3779C19.4585 20.3779 24.138 23.2651 26.6096 27.5434C26.6859 27.5988 26.7515 27.6707 26.8002 27.7546L34.4744 40.8082C35.4975 42.5468 37.3867 43.619 39.4315 43.619H47.6256V43.6175ZM23.3939 34.5008C23.3939 39.5458 19.2297 43.6355 14.0928 43.6355H2.75916C0.638202 43.6355 -0.686824 41.3818 0.372892 39.5773L6.08469 29.8511C7.704 27.1676 10.6849 25.3661 14.0928 25.3661C19.2297 25.3661 23.3939 29.4557 23.3939 34.5008Z" fill="white"/>
</svg>
