<svg width="26" height="36" viewBox="0 0 26 36" fill="none" xmlns="http://www.w3.org/2000/svg">
<path d="M8.3441 20.0005V33.4255C8.3441 34.3884 7.54971 35.1686 6.56928 35.1686H2.71923C1.73881 35.1686 0.944397 34.3884 0.944397 33.4255V1.80448C0.944397 0.841595 1.73881 0.0614014 2.71923 0.0614014H6.36039C7.34082 0.0614014 8.13521 0.841595 8.13521 1.80448V13.5613H8.44779C9.0516 12.0129 10.0229 10.7999 11.3677 9.92239C12.7095 9.03437 14.3563 8.51474 16.3842 8.51474C18.2368 8.51474 19.8927 8.98795 21.2696 9.78462C22.6602 10.5708 23.7367 11.7029 24.5021 13.1839C25.2767 14.653 25.661 16.4125 25.6472 18.4626V33.4255C25.6472 34.3884 24.8528 35.1686 23.8724 35.1686H20.0223C19.0419 35.1686 18.2475 34.3884 18.2475 33.4255V19.7609C18.2582 18.1436 17.8419 16.8857 16.9957 15.9857C16.1616 15.0857 14.9921 14.6365 13.4856 14.6365C12.4778 14.6365 11.5858 14.8476 10.8097 15.2684C10.0458 15.6892 9.44347 16.3047 9.00434 17.1133C8.57588 17.91 8.35632 18.8729 8.34259 20.0005H8.3441Z" fill="white"/>
</svg>
