<svg width="7" height="10" viewBox="0 0 7 10" fill="none" xmlns="http://www.w3.org/2000/svg">
<path d="M1.54051 9.99997C1.39871 9.99997 1.26453 9.9865 1.13645 9.96105C1.00836 9.93559 0.890967 9.90413 0.784233 9.86969L0.996179 9.02212C1.06632 9.04009 1.14712 9.05956 1.23556 9.08052C1.324 9.10149 1.40786 9.11346 1.48715 9.11346C1.85005 9.11346 2.15042 8.98468 2.3898 8.7286C2.62919 8.47253 2.81522 8.14908 2.94788 7.75823L3.09427 7.28952L0.506714 0.943146H1.63505L2.9494 4.44878C3.04699 4.71833 3.15068 5.00883 3.26046 5.32181C3.37025 5.63479 3.47544 5.93878 3.5715 6.23379H3.62489C3.72247 5.94777 3.81547 5.64677 3.90391 5.33529C3.99235 5.02232 4.08078 4.72731 4.16922 4.44878L5.32348 0.943146H6.38472L3.95575 7.79717C3.8048 8.21497 3.62639 8.58784 3.41903 8.91729C3.21166 9.24674 2.95398 9.5103 2.64903 9.70497C2.34407 9.90114 1.97507 9.99848 1.54051 9.99848V9.99997Z" fill="white"/>
</svg>
