<svg width="6" height="10" viewBox="0 0 6 10" fill="none" xmlns="http://www.w3.org/2000/svg">
<path d="M3.00281 9.43179C2.70243 9.43179 2.38985 9.35991 2.06812 9.21615C1.74487 9.07239 1.44145 8.87472 1.15936 8.62314H1.11972L1.02671 9.27456H0.151489V-0.00390625H1.24018V2.52386L1.21425 3.67093C1.50701 3.41936 1.8272 3.20821 2.17637 3.039C2.52555 2.86978 2.87778 2.78442 3.23152 2.78442C4.07168 2.78442 4.70904 3.07494 5.14207 3.65746C5.57511 4.23999 5.79163 5.02167 5.79163 6.00253C5.79163 6.72432 5.66049 7.33979 5.39975 7.85343C5.13901 8.36557 4.79747 8.75642 4.37816 9.02597C3.95732 9.29552 3.49989 9.43029 3.00434 9.43029L3.00281 9.43179ZM2.81679 8.53329C3.34741 8.53329 3.78808 8.31017 4.13725 7.86242C4.48642 7.41467 4.66176 6.80069 4.66176 6.019C4.66176 5.32416 4.53064 4.76111 4.26991 4.33133C4.00917 3.90155 3.57307 3.68592 2.96316 3.68592C2.6887 3.68592 2.40967 3.75929 2.12759 3.90754C1.84398 4.05579 1.54818 4.26844 1.23865 4.54547V7.86841C1.52226 8.111 1.80281 8.28321 2.08184 8.38355C2.36087 8.48388 2.60637 8.53329 2.81832 8.53329H2.81679Z" fill="white"/>
</svg>
