<svg width="8" height="11" viewBox="0 0 8 11" fill="none" xmlns="http://www.w3.org/2000/svg">
<path d="M6.14038 3.41453C5.73784 2.91436 5.06542 2.65829 4.33658 2.65829C3.60774 2.65829 2.91854 2.99073 2.91854 3.73498C2.91854 4.47923 3.52844 4.74878 4.46008 5.12016L4.51344 5.14113C5.61433 5.5739 6.98358 6.11151 6.98358 7.79469C6.98358 8.67821 6.61916 9.42695 5.93149 9.96155C5.30786 10.4467 4.46008 10.7133 3.54674 10.7133C2.28423 10.7133 1.08728 10.2056 0.262378 9.32212L0.210541 9.26672L1.54319 7.95791L1.59961 8.0238C2.1104 8.6228 2.86059 8.97171 3.65652 8.9792C4.37012 8.9792 5.14012 8.66173 5.14012 7.9654C5.14012 7.33046 4.42959 7.03546 3.60621 6.69553L3.51625 6.65809C2.49161 6.2358 1.08576 5.65626 1.08576 3.89372C1.08576 1.95297 2.76759 0.937668 4.42959 0.937668C4.44027 0.937668 4.45093 0.937668 4.46161 0.937668C5.60823 0.937668 6.6222 1.34798 7.37239 2.20305L6.13886 3.41453H6.14038Z" fill="white"/>
</svg>
