<svg width="286" height="73" viewBox="0 0 286 73" fill="none" xmlns="http://www.w3.org/2000/svg">
<path fill-rule="evenodd" clip-rule="evenodd" d="M57.1836 53.0679C59.829 53.0679 61.4835 50.2193 60.1608 47.9372L33.338 1.71161C32.0153 -0.56646 28.7106 -0.56646 27.3879 1.71161L13.8373 25.0669C14.8365 24.8876 15.8684 24.7938 16.9209 24.7938C23.3624 24.7938 28.9809 28.3067 31.9498 33.5108C32.0399 33.5801 32.1177 33.6657 32.1791 33.7675L41.393 49.6488C42.6216 51.7639 44.8902 53.0679 47.3432 53.0679H57.1836ZM28.0881 41.9751C28.0881 48.1124 23.088 53.0883 16.9209 53.0883H3.31293C0.765794 53.0883 -0.823095 50.3457 0.446378 48.1532L7.30563 36.3186C9.25079 33.0544 12.8299 30.8619 16.9209 30.8619C23.088 30.8619 28.0881 35.8378 28.0881 41.9751ZM210.724 16.0443C211.654 17.8333 212.117 19.9728 212.1 22.4669V40.671C212.1 41.8406 211.146 42.7901 209.971 42.7901H205.348C204.168 42.7901 203.218 41.8406 203.218 40.671V24.0481C203.23 22.0797 202.731 20.5515 201.715 19.4553C200.712 18.359 199.311 17.8129 197.501 17.8129C196.293 17.8129 195.22 18.0697 194.287 18.5832C193.369 19.0966 192.645 19.8424 192.116 20.8286C191.6 21.7985 191.338 22.9681 191.322 24.3415V40.6751C191.322 41.8447 190.368 42.7942 189.192 42.7942H184.569C183.39 42.7942 182.44 41.8447 182.44 40.6751V2.19656C182.44 1.02696 183.394 0.0774298 184.569 0.0774298H188.943C190.122 0.0774298 191.072 1.02696 191.072 2.19656V16.5007H191.449C192.174 14.6179 193.341 13.1427 194.954 12.075C196.568 10.995 198.541 10.3634 200.978 10.3634C203.202 10.3634 205.188 10.938 206.842 11.9079C208.513 12.8656 209.803 14.243 210.724 16.0443ZM111.845 2.11913V40.6669C111.845 41.8365 110.891 42.7861 109.715 42.7861H105.088C103.913 42.7861 102.958 41.8365 102.958 40.6669V2.11913C102.954 0.949534 103.908 0 105.088 0H109.715C110.891 0 111.845 0.949534 111.845 2.11913ZM269.673 10.2859C266.983 10.2859 264.444 10.938 262.204 12.0872C262.048 11.0684 261.172 10.2859 260.107 10.2859H255.479C254.3 10.2859 253.35 11.2355 253.35 12.4051V26.3261C253.35 26.3954 253.346 26.4647 253.346 26.534C253.346 26.6032 253.35 26.6725 253.35 26.7418V50.9488C253.35 52.1184 254.304 53.0679 255.479 53.0679H260.107C261.286 53.0679 262.236 52.1184 262.236 50.9488V41.0011C264.468 42.1381 266.991 42.7861 269.673 42.7861C278.69 42.7861 286.004 35.5117 286.004 26.534C286.004 17.5562 278.69 10.2819 269.673 10.2819V10.2859ZM269.673 33.9265C265.574 33.9265 262.249 30.6174 262.249 26.538C262.249 22.4587 265.574 19.1496 269.673 19.1496C273.772 19.1496 277.093 22.4587 277.093 26.538C277.093 30.6174 273.772 33.9265 269.673 33.9265ZM132.533 10.2859C123.516 10.2859 116.202 17.5603 116.202 26.538C116.202 35.5158 123.512 42.7901 132.533 42.7901C141.554 42.7901 148.864 35.5158 148.864 26.538C148.864 17.5603 141.554 10.2859 132.533 10.2859ZM132.533 33.9265C128.434 33.9265 125.109 30.6174 125.109 26.538C125.109 22.4587 128.434 19.1496 132.533 19.1496C136.632 19.1496 139.957 22.4587 139.957 26.538C139.957 30.6174 136.632 33.9265 132.533 33.9265ZM232.592 10.2859C223.575 10.2859 216.261 17.5603 216.261 26.538C216.261 35.5158 223.575 42.7901 232.592 42.7901C241.609 42.7901 248.923 35.5158 248.923 26.538C248.923 17.5603 241.613 10.2859 232.592 10.2859ZM232.592 33.9265C228.493 33.9265 225.172 30.6174 225.172 26.538C225.172 22.4587 228.493 19.1496 232.592 19.1496C236.691 19.1496 240.016 22.4587 240.016 26.538C240.016 30.6174 236.691 33.9265 232.592 33.9265ZM96.4882 10.2859H91.8607C90.7919 10.2859 89.9156 11.0725 89.7599 12.0913C87.5199 10.938 84.9769 10.2859 82.2782 10.2859C73.2609 10.2859 65.9471 17.5603 65.9471 26.538C65.9471 35.5158 73.2568 42.7901 82.2782 42.7901C84.9769 42.7901 87.5158 42.134 89.7599 40.9848C89.9156 42.0036 90.7919 42.7901 91.8607 42.7901H96.4882C97.6634 42.7901 98.6176 41.8406 98.6176 40.671V12.4051C98.6176 11.2355 97.6634 10.2859 96.4882 10.2859ZM82.2823 33.9224C78.1832 33.9224 74.858 30.6133 74.858 26.534C74.858 22.4546 78.1832 19.1455 82.2823 19.1455C86.3815 19.1455 89.7067 22.4546 89.7067 26.534C89.7067 30.6133 86.3815 33.9224 82.2823 33.9224ZM176.674 27.9522C177.792 29.2359 178.369 30.9719 178.406 33.1603C178.406 35.0105 177.882 36.6691 176.842 38.1444C175.834 39.5789 174.364 40.7118 172.427 41.5431C170.527 42.3745 168.316 42.7901 165.781 42.7901C163.062 42.7901 160.646 42.3174 158.52 41.376C156.399 40.4306 154.72 39.1469 153.492 37.5249C152.73 36.4939 152.177 35.3936 151.829 34.2158C151.481 33.034 152.48 31.9744 153.717 31.9744H158.938C160.031 31.9744 160.883 32.8669 161.51 33.7553C161.739 34.0813 162.026 34.3707 162.37 34.6356C163.262 35.3161 164.36 35.6544 165.666 35.6544C166.858 35.6544 167.767 35.4262 168.402 34.9738C169.069 34.4848 169.405 33.8613 169.405 33.1033C169.405 32.1986 168.938 31.5384 168.009 31.1227C167.079 30.6704 165.572 30.1772 163.484 29.6515C161.248 29.1218 159.384 28.5757 157.898 28.0092C156.407 27.4061 155.126 26.481 154.044 25.234C152.963 23.9503 152.423 22.2346 152.423 20.0828C152.423 18.2694 152.906 16.627 153.877 15.1559C154.88 13.648 156.334 12.458 158.234 11.59C160.171 10.722 162.46 10.2859 165.105 10.2859C169.012 10.2859 172.087 11.2681 174.319 13.2323C176.023 14.7076 177.182 16.5414 177.8 18.738C178.14 19.9484 177.132 21.0446 175.867 21.0446H171.268C170.204 21.0446 169.368 20.201 168.778 19.3167C168.557 18.9866 168.283 18.6932 167.955 18.4405C167.173 17.8007 166.129 17.4788 164.827 17.4788C163.709 17.4788 162.853 17.707 162.259 18.1593C161.661 18.575 161.362 19.1578 161.362 19.9158C161.362 20.8205 161.829 21.501 162.759 21.9534C163.729 22.4057 165.216 22.8581 167.231 23.3104C169.536 23.9136 171.42 24.5167 172.869 25.1239C174.323 25.6904 175.589 26.6358 176.67 27.9562L176.674 27.9522ZM256.667 61.5648C255.877 61.5648 255.099 61.7808 254.398 62.1476L254.497 61.5648H252.326L251.597 65.8724C251.597 65.8724 251.597 65.8805 251.597 65.8846C251.597 65.8887 251.597 65.8928 251.597 65.8968L250.426 72.8166H252.596L253.137 69.6216C253.714 69.9884 254.415 70.2044 255.209 70.2044C257.605 70.2044 259.878 68.2686 260.283 65.8846C260.688 63.5006 259.071 61.5648 256.671 61.5648H256.667ZM258.104 65.8846C257.904 67.0787 256.765 68.0445 255.57 68.0445C254.374 68.0445 253.571 67.0868 253.764 65.9009V65.8764C253.972 64.6865 255.107 63.7247 256.303 63.7247C257.498 63.7247 258.309 64.6906 258.108 65.8846H258.104ZM266.262 61.5648C265.471 61.5648 264.693 61.7808 263.993 62.1476L264.091 61.5648H261.921L261.192 65.8805C261.192 65.8805 261.192 65.8805 261.192 65.8846C261.192 65.8846 261.192 65.8846 261.192 65.8887L260.021 72.8166H262.191L262.732 69.6216C263.309 69.9884 264.014 70.2044 264.804 70.2044C267.2 70.2044 269.472 68.2686 269.878 65.8846C270.283 63.5006 268.666 61.5648 266.266 61.5648H266.262ZM267.699 65.8846C267.498 67.0787 266.36 68.0445 265.164 68.0445C263.969 68.0445 263.162 67.0827 263.358 65.8928V65.8846C263.563 64.6946 264.697 63.7288 265.897 63.7288C267.097 63.7288 267.904 64.6946 267.703 65.8887L267.699 65.8846ZM275.852 61.5648C273.457 61.5648 271.184 63.5006 270.779 65.8846C270.373 68.2686 271.991 70.2044 274.39 70.2044C275.59 70.2044 276.757 69.7194 277.675 68.941C277.986 68.6762 278.273 68.3746 278.518 68.0445L276.741 67.0664C276.643 67.1846 276.536 67.2906 276.426 67.3924C275.963 67.7959 275.369 68.0445 274.759 68.0445C273.85 68.0445 273.166 67.4862 272.978 66.6956H277.003H279.255C279.35 66.4348 279.423 66.1617 279.468 65.8846C279.874 63.5006 278.256 61.5648 275.857 61.5648H275.852ZM275.488 63.7247C276.397 63.7247 277.081 64.283 277.269 65.0736H273.248C273.703 64.283 274.575 63.7247 275.488 63.7247ZM285.443 61.5648L285.079 63.7247C283.879 63.7247 282.744 64.6906 282.544 65.8846L281.811 70.2044H279.64L281.102 61.5648H283.273L283.174 62.1476C283.875 61.7808 284.653 61.5648 285.443 61.5648ZM247.793 64.8047L246.88 70.2044H244.709L245.532 65.3426C245.684 64.446 245.078 63.7206 244.177 63.7206C243.276 63.7206 242.424 64.446 242.273 65.3385L242.117 66.2555L241.45 70.2003H239.279V70.1799L241.241 58.3291H243.46L242.846 61.952C243.473 61.7034 244.21 61.5567 245.086 61.5567C246.884 61.5567 248.096 63.0075 247.793 64.7965V64.8047ZM251.421 61.5648L249.959 70.2044H247.789L249.251 61.5648H251.421ZM249.57 59.4253C249.57 58.8181 250.066 58.3291 250.672 58.3291C251.278 58.3291 251.773 58.8222 251.773 59.4253C251.773 60.0285 251.278 60.5216 250.672 60.5216C250.066 60.5216 249.57 60.0285 249.57 59.4253ZM238.919 66.663C238.919 67.7388 238.481 68.6517 237.654 69.2997C236.904 69.8906 235.889 70.2125 234.791 70.2125C233.276 70.2125 231.839 69.5972 230.848 68.5213L230.786 68.452L232.387 66.8586L232.457 66.9401C233.071 67.6696 233.972 68.0934 234.926 68.1015C235.782 68.1015 236.708 67.7144 236.708 66.8667C236.708 66.0924 235.856 65.7379 234.865 65.3222L234.758 65.2774C233.526 64.7639 231.843 64.0589 231.843 61.9153C231.843 59.5557 233.862 58.3209 235.856 58.3209C235.868 58.3209 235.88 58.3209 235.897 58.3209C237.273 58.3209 238.493 58.8222 239.39 59.8614L237.907 61.3366C237.424 60.7294 236.617 60.4156 235.741 60.4156C234.865 60.4156 234.038 60.8191 234.038 61.7238C234.038 62.6285 234.771 62.9586 235.889 63.4109L235.954 63.4354C237.277 63.9611 238.919 64.6172 238.919 66.663ZM216.748 59.625H228.714L228.505 60.9454H215.426L216.748 59.625ZM229.091 57.4203L228.947 58.3046H218.067L219.25 57.1269C219.34 57.0372 219.463 56.9843 219.594 56.9843H228.718C228.952 56.9843 229.128 57.1921 229.091 57.4203ZM224.23 62.2617L225.553 63.5821H216.744L215.421 62.2617H224.23ZM219.394 66.2188L218.071 64.8984H226.879L228.202 66.2188H219.394ZM215.131 67.5392H228.214L226.892 68.8595H214.914L215.131 67.5392ZM214.692 70.1799H225.569L224.386 71.3577C224.295 71.4473 224.173 71.5003 224.042 71.5003H214.93C214.688 71.5003 214.508 71.2843 214.545 71.052L214.688 70.184L214.692 70.1799ZM199.59 61.789C199.164 61.789 198.742 61.8909 198.324 62.0987C197.903 62.3065 197.522 62.5633 197.17 62.8689L197.202 61.4752V58.3984H195.896V69.6868H196.949L197.059 68.8921H197.108C197.448 69.1978 197.813 69.4382 198.202 69.6135C198.591 69.7887 198.963 69.8743 199.324 69.8743C199.917 69.8743 200.466 69.7113 200.974 69.3812C201.478 69.0552 201.887 68.5783 202.202 67.9548C202.514 67.3313 202.673 66.5815 202.673 65.7053C202.673 64.5112 202.411 63.5617 201.891 62.8526C201.371 62.1435 200.605 61.789 199.598 61.789H199.59ZM200.679 67.963C200.261 68.5091 199.733 68.778 199.094 68.778C198.84 68.778 198.546 68.7169 198.21 68.5947C197.874 68.4724 197.538 68.2645 197.198 67.9671V63.9244C197.571 63.5862 197.927 63.3294 198.267 63.146C198.607 62.9667 198.943 62.8771 199.27 62.8771C200.003 62.8771 200.528 63.1379 200.839 63.6636C201.15 64.1852 201.31 64.8699 201.31 65.7175C201.31 66.6671 201.101 67.4169 200.679 67.963ZM209.307 61.9805H210.581L207.665 70.3185C207.485 70.8279 207.268 71.2802 207.018 71.6837C206.768 72.0871 206.461 72.405 206.093 72.6414C205.724 72.8777 205.282 73 204.762 73C204.59 73 204.43 72.9837 204.275 72.9511C204.119 72.9185 203.98 72.8818 203.853 72.8411L204.107 71.81C204.193 71.8304 204.287 71.8549 204.393 71.8834C204.5 71.9078 204.602 71.9241 204.696 71.9241C205.13 71.9241 205.495 71.7693 205.782 71.4555C206.068 71.1417 206.293 70.7505 206.449 70.2737L206.625 69.7031L203.517 61.9805H204.872L206.449 66.2473C206.568 66.5733 206.691 66.9279 206.822 67.3109C206.953 67.6899 207.08 68.0608 207.194 68.4194H207.26C207.379 68.0689 207.489 67.7062 207.596 67.3272C207.702 66.9482 207.809 66.5896 207.915 66.2473L209.299 61.9805H209.307Z" fill="white"/>
</svg>
