<svg width="8" height="8" viewBox="0 0 8 8" fill="none" xmlns="http://www.w3.org/2000/svg">
<path d="M5.48229 5.12412C5.40147 5.21996 5.31304 5.30981 5.2185 5.39068C4.83274 5.72162 4.33871 5.92678 3.83096 5.92678C2.83224 5.92678 2.15982 5.13161 2.32754 4.15075C2.49527 3.16989 3.44215 2.37473 4.43935 2.37473C5.43655 2.37473 6.1105 3.16989 5.94277 4.15075C5.90313 4.38586 5.81774 4.61048 5.69728 4.81714H7.57274C7.65203 4.6015 7.7115 4.37837 7.75115 4.15075C8.08812 2.18904 6.74175 0.600204 4.7443 0.600204C2.74685 0.600204 0.85612 2.19053 0.519146 4.15075C0.182171 6.11246 1.52856 7.70131 3.52601 7.70131C4.52474 7.70131 5.49601 7.30447 6.26144 6.66055C6.52218 6.44191 6.75851 6.19483 6.96283 5.92528L5.48229 5.12113V5.12412Z" fill="white"/>
</svg>
