<svg width="23" height="28" viewBox="0 0 23 28" fill="none" xmlns="http://www.w3.org/2000/svg">
<path d="M12.0736 27.1686C9.81081 27.1686 7.79507 26.7807 6.02786 26.005C4.25913 25.2293 2.86396 24.1751 1.84084 22.8408C1.20653 21.9948 0.744522 21.0873 0.45634 20.1214C0.166633 19.1495 0.997635 18.2795 2.02991 18.2795H6.37855C7.28884 18.2795 7.99787 19.0118 8.52239 19.744C8.71299 20.0106 8.95084 20.2517 9.23902 20.4673C9.98159 21.0259 10.8965 21.3059 11.9836 21.3059C12.9747 21.3059 13.7341 21.1202 14.2616 20.7473C14.8182 20.3445 15.0987 19.8324 15.0987 19.2109C15.0987 18.4667 14.7099 17.9231 13.9353 17.5816C13.1607 17.2088 11.9058 16.8059 10.1676 16.3717C8.30586 15.9374 6.75518 15.4882 5.51554 15.0224C4.2759 14.5268 3.20551 13.766 2.30742 12.7418C1.4078 11.6875 0.957987 10.2754 0.957987 8.50685C0.957987 7.01684 1.36053 5.6676 2.16713 4.45763C3.00423 3.21621 4.21338 2.23985 5.79457 1.52554C7.40778 0.811238 9.31527 0.454834 11.517 0.454834C14.7724 0.454834 17.3325 1.26198 19.1912 2.87478C20.6108 4.08625 21.576 5.59422 22.0883 7.4002C22.3704 8.39603 21.5317 9.29752 20.4796 9.29752H16.6479C15.7605 9.29752 15.0652 8.60418 14.5727 7.8779C14.3882 7.60685 14.1595 7.36726 13.8865 7.15611C13.237 6.62899 12.3663 6.36544 11.2822 6.36544C10.3521 6.36544 9.63851 6.55112 9.14296 6.924C8.64589 7.26543 8.39735 7.74612 8.39735 8.36608C8.39735 9.11034 8.78616 9.6689 9.55922 10.0418C10.3674 10.4147 11.607 10.786 13.2827 11.1589C15.2039 11.6561 16.7699 12.1517 17.9806 12.6489C19.1897 13.1146 20.2433 13.8903 21.1445 14.976C22.0746 16.0302 22.5549 17.4589 22.5869 19.2573C22.5869 20.7773 22.1523 22.143 21.2847 23.353C20.4461 24.5315 19.2217 25.4629 17.6085 26.1458C16.0258 26.8287 14.1823 27.1701 12.0721 27.1701L12.0736 27.1686Z" fill="white"/>
</svg>
